<?xml version="1.0" encoding="UTF-8"?>
<!DOCTYPE svg PUBLIC "-//W3C//DTD SVG 1.1//EN" "http://www.w3.org/Graphics/SVG/1.1/DTD/svg11.dtd">
<!-- Creator: CorelDRAW 2021.5 -->
<svg xmlns="http://www.w3.org/2000/svg" xml:space="preserve" width="50mm" height="50mm" version="1.1" style="shape-rendering:geometricPrecision; text-rendering:geometricPrecision; image-rendering:optimizeQuality; fill-rule:evenodd; clip-rule:evenodd"
viewBox="0 0 5095.05 5095.05"
 xmlns:xlink="http://www.w3.org/1999/xlink"
 xmlns:xodm="http://www.corel.com/coreldraw/odm/2003">
 <defs>
  <style type="text/css">
   <![CDATA[
    .fil0 {fill:#353D54}
    .fil1 {fill:#f0f8ff}
   ]]>
  </style>
 </defs>
 <g id="Слой_x0020_1">
  <metadata id="CorelCorpID_0Corel-Layer"/>
  <g id="_3097620019680">
   <rect class="fil0" y="-0.01" width="5095.05" height="5095.05"/>
   <path class="fil1" d="M1505.16 3593.74l0 -1473.69 2084.73 0 0 1473.69c0,84.14 -59.63,143.77 -143.77,143.77l-1797.19 0c-84.14,0 -143.77,-59.63 -143.77,-143.77zm143.77 -2408.23l0 143.77c-317.22,0 -467.27,80.66 -467.27,395.38l0 1940.97c0,269.45 125.93,395.38 395.38,395.38l1940.97 0c269.45,0 395.38,-125.93 395.38,-395.38l0 -1940.97c0,-314.71 -150.05,-395.38 -467.27,-395.38 0,-84.07 10.59,-287.55 -107.83,-287.55 -198.03,0 -215.66,90.3 -215.66,287.55l-1150.2 0c0,-434.63 -323.5,-304.7 -323.5,-143.77z"/>
  </g>
 </g>
</svg>
